<svg width="110" height="35" viewBox="0 0 110 35" fill="none" xmlns="http://www.w3.org/2000/svg">
<path d="M24.1566 0H16.566C15.3928 0 14.4316 0.957746 14.4316 2.12676C14.4316 3.29577 15.3928 4.25352 16.566 4.25352H22.0222V9.69014C22.0222 10.8591 22.9834 11.8169 24.1566 11.8169C25.3298 11.8169 26.291 10.8591 26.291 9.69014V2.12676C26.291 0.957746 25.3298 0 24.1566 0Z" fill="#CA003D"/>
<path d="M9.72496 0.0698242H2.1344C0.961188 0.0698242 0 1.01349 0 2.19658C0 3.3656 0.961188 4.32334 2.1344 4.32334H7.59056V9.75996C7.59056 10.929 8.55175 11.8867 9.72496 11.8867C10.8982 11.8867 11.8594 10.929 11.8594 9.75996V2.19658C11.8594 1.01349 10.8982 0.0698242 9.72496 0.0698242Z" fill="#CA003D"/>
<path d="M24.1859 14.7183H16.5953C15.4221 14.7183 14.4609 15.676 14.4609 16.845C14.4609 18.014 15.4221 18.9718 16.5953 18.9718H22.0515V24.4084C22.0515 25.5774 23.0127 26.5352 24.1859 26.5352C25.3591 26.5352 26.3203 25.5774 26.3203 24.4084V16.845C26.3203 15.676 25.3591 14.7183 24.1859 14.7183Z" fill="#CA003D"/>
<path d="M41.3462 17.9861C38.1517 17.9861 36.2434 20.6058 36.2434 20.6058V13.2537C36.2434 12.0847 35.2822 11.127 34.109 11.127C32.9358 11.127 31.9746 12.0847 31.9746 13.2537V32.634C31.9746 33.803 32.9358 34.7608 34.109 34.7608C36.2434 34.7608 36.2434 32.3946 36.2434 32.3946C36.2434 32.3946 38.4909 35.0002 41.3462 35.0002C46.0956 35.0002 49.5304 31.2255 49.5304 26.4931C49.5304 21.7608 46.0956 17.9861 41.3462 17.9861ZM40.9928 30.7467C38.6323 30.7467 36.724 28.8453 36.724 26.4931C36.724 24.141 38.6323 22.2396 40.9928 22.2396C43.3534 22.2396 45.2616 24.141 45.2616 26.4931C45.2616 28.8312 43.3534 30.7467 40.9928 30.7467Z" fill="#002D74"/>
<path d="M101.463 17.9863C96.7423 17.9863 92.9258 21.7891 92.9258 26.4934C92.9258 31.1976 96.7423 35.0004 101.463 35.0004C106.185 35.0004 110.001 31.1976 110.001 26.4934C110.001 21.7891 106.17 17.9863 101.463 17.9863ZM101.463 30.8596C99.0463 30.8596 97.0815 28.9018 97.0815 26.4934C97.0815 24.0849 99.0463 22.1272 101.463 22.1272C103.88 22.1272 105.845 24.0849 105.845 26.4934C105.845 28.9018 103.88 30.8596 101.463 30.8596Z" fill="#002D74"/>
<path d="M85.984 26.4933L90.6344 21.8595C91.4684 21.0285 91.4684 19.6764 90.6344 18.8454C89.8004 18.0144 88.4435 18.0144 87.6095 18.8454L82.9591 23.4792L78.3086 18.8454C77.4746 18.0144 76.1177 18.0144 75.2837 18.8454C74.4497 19.6764 74.4497 21.0285 75.2837 21.8595L79.9341 26.4933L75.2837 31.1271C74.4497 31.9581 74.4497 33.3102 75.2837 34.1412C76.1177 34.9722 77.4746 34.9722 78.3086 34.1412L82.9591 29.5074L87.6095 34.1412C88.4435 34.9722 89.8004 34.9722 90.6344 34.1412C91.4684 33.3102 91.4684 31.9581 90.6344 31.1271L85.984 26.4933Z" fill="#002D74"/>
<path d="M68.9801 34.7608C67.8069 34.7608 66.8457 33.8031 66.8457 32.634V20.3523C66.8457 19.1833 67.8069 18.2256 68.9801 18.2256C70.1533 18.2256 71.1145 19.1833 71.1145 20.3523V32.634C71.1145 33.8031 70.1533 34.7608 68.9801 34.7608Z" fill="#002D74"/>
<path d="M71.4678 13.7328C71.4678 15.099 70.3511 16.2116 68.98 16.2116C67.6089 16.2116 66.4922 15.099 66.4922 13.7328C66.4922 12.3666 67.6089 11.2539 68.98 11.2539C70.3511 11.2539 71.4678 12.3525 71.4678 13.7328Z" fill="#002D74"/>
<path d="M62.098 17.9863C58.5359 17.9863 56.6418 20.592 56.6418 20.592C56.6418 19.3948 55.9351 18.2258 54.5074 18.2258C53.3342 18.2258 52.373 19.1835 52.373 20.3525V32.6342C52.373 33.8032 53.3342 34.761 54.5074 34.761C55.6807 34.761 56.6418 33.8032 56.6418 32.6342V27.6765C56.6418 24.4934 57.702 22.2398 62.098 22.2398C63.2853 22.2398 64.2324 21.2821 64.2324 20.1131C64.2324 18.9441 63.2853 17.9863 62.098 17.9863Z" fill="#002D74"/>
</svg>
