<svg width="103" height="33" viewBox="0 0 103 33" fill="none" xmlns="http://www.w3.org/2000/svg">
<path d="M22.619 0H15.5115C14.413 0 13.5129 0.90302 13.5129 2.00524C13.5129 3.10745 14.413 4.01047 15.5115 4.01047H20.6205V9.13644C20.6205 10.2387 21.5205 11.1417 22.619 11.1417C23.7176 11.1417 24.6176 10.2387 24.6176 9.13644V2.00524C24.6176 0.90302 23.7176 0 22.619 0Z" fill="#B8BEC6"/>
<path d="M9.1061 0.0656738H1.99858C0.900022 0.0656738 0 0.955414 0 2.07091C0 3.17312 0.900022 4.07614 1.99858 4.07614H7.10753V9.20211C7.10753 10.3043 8.00755 11.2073 9.1061 11.2073C10.2047 11.2073 11.1047 10.3043 11.1047 9.20211V2.07091C11.1047 0.955414 10.2047 0.0656738 9.1061 0.0656738Z" fill="#B8BEC6"/>
<path d="M22.6466 13.8774H15.5391C14.4405 13.8774 13.5405 14.7805 13.5405 15.8827C13.5405 16.9849 14.4405 17.8879 15.5391 17.8879H20.6481V23.0139C20.6481 24.1161 21.5481 25.0191 22.6466 25.0191C23.7452 25.0191 24.6452 24.1161 24.6452 23.0139V15.8827C24.6452 14.7805 23.7452 13.8774 22.6466 13.8774Z" fill="#B8BEC6"/>
<path d="M38.7142 16.9582C35.7229 16.9582 33.9361 19.4282 33.9361 19.4282V12.4962C33.9361 11.394 33.0361 10.491 31.9375 10.491C30.839 10.491 29.939 11.394 29.939 12.4962V30.7691C29.939 31.8713 30.839 32.7743 31.9375 32.7743C33.9361 32.7743 33.9361 30.5433 33.9361 30.5433C33.9361 30.5433 36.0406 33.0001 38.7142 33.0001C43.1613 33.0001 46.3776 29.4411 46.3776 24.9791C46.3776 20.5171 43.1613 16.9582 38.7142 16.9582ZM38.3833 28.9896C36.1729 28.9896 34.3861 27.1968 34.3861 24.9791C34.3861 22.7614 36.1729 20.9687 38.3833 20.9687C40.5936 20.9687 42.3804 22.7614 42.3804 24.9791C42.3804 27.1836 40.5936 28.9896 38.3833 28.9896Z" fill="#B8BEC6"/>
<path d="M95.0058 16.9583C90.5851 16.9583 87.0115 20.5438 87.0115 24.9792C87.0115 29.4146 90.5851 33.0001 95.0058 33.0001C99.4265 33.0001 103 29.4146 103 24.9792C103 20.5438 99.4132 16.9583 95.0058 16.9583ZM95.0058 29.0959C92.7425 29.0959 90.9027 27.25 90.9027 24.9792C90.9027 22.7084 92.7425 20.8625 95.0058 20.8625C97.2691 20.8625 99.1088 22.7084 99.1088 24.9792C99.1088 27.25 97.2691 29.0959 95.0058 29.0959Z" fill="#B8BEC6"/>
<path d="M80.5122 24.9792L84.8668 20.6101C85.6477 19.8266 85.6477 18.5518 84.8668 17.7683C84.0859 16.9848 82.8152 16.9848 82.0343 17.7683L77.6798 22.1373L73.3253 17.7683C72.5444 16.9848 71.2738 16.9848 70.4929 17.7683C69.712 18.5518 69.712 19.8266 70.4929 20.6101L74.8474 24.9792L70.4929 29.3482C69.712 30.1317 69.712 31.4065 70.4929 32.19C71.2738 32.9735 72.5444 32.9735 73.3253 32.19L77.6798 27.821L82.0343 32.19C82.8152 32.9735 84.0859 32.9735 84.8668 32.19C85.6477 31.4065 85.6477 30.1317 84.8668 29.3482L80.5122 24.9792Z" fill="#B8BEC6"/>
<path d="M64.5899 32.7742C63.4913 32.7742 62.5913 31.8712 62.5913 30.769V19.1891C62.5913 18.0869 63.4913 17.1838 64.5899 17.1838C65.6884 17.1838 66.5885 18.0869 66.5885 19.1891V30.769C66.5885 31.8712 65.6884 32.7742 64.5899 32.7742Z" fill="#B8BEC6"/>
<path d="M66.9192 12.9478C66.9192 14.236 65.8736 15.285 64.5897 15.285C63.3059 15.285 62.2603 14.236 62.2603 12.9478C62.2603 11.6597 63.3059 10.6106 64.5897 10.6106C65.8736 10.6106 66.9192 11.6464 66.9192 12.9478Z" fill="#B8BEC6"/>
<path d="M58.1444 16.9583C54.809 16.9583 53.0355 19.415 53.0355 19.415C53.0355 18.2862 52.3737 17.184 51.0369 17.184C49.9384 17.184 49.0383 18.087 49.0383 19.1892V30.7691C49.0383 31.8714 49.9384 32.7744 51.0369 32.7744C52.1355 32.7744 53.0355 31.8714 53.0355 30.7691V26.0947C53.0355 23.0935 54.0281 20.9687 58.1444 20.9687C59.2562 20.9687 60.143 20.0657 60.143 18.9635C60.143 17.8613 59.2562 16.9583 58.1444 16.9583Z" fill="#B8BEC6"/>
</svg>
